PathFileType	4	(X/Y/Z)	c:\Git\powerlifing_model_clean\simulations\HC835B\Session1\HC835B_OGR_0007\marker_experimental.trc
DataRate	CameraRate	NumFrames	NumMarkers	Units	OrigDataRate	OrigDataStartFrame	OrigNumFrames
240.000000	240.000000	4	38	mm	240.000000	195	223
Frame#	Time	RPSI			LPSI			RASI			LASI			RTH1			RTH2			RTH3			RTH4			RSK1			RSK2			RSK3			RSK4			RCAL1			RCAL2			RCAL3			RST			RPT			RTN			RFMB			RSMB			RVMB			RFMH			RSMH			RVMH			RPM			LTH1			LTH2			LTH3			LTH4			LSK1			LSK2			LSK3			LSK4			LCAL1			LCAL2			LCAL3			LFMH			LVMH			
		X1	Y1	Z1	X2	Y2	Z2	X3	Y3	Z3	X4	Y4	Z4	X5	Y5	Z5	X6	Y6	Z6	X7	Y7	Z7	X8	Y8	Z8	X9	Y9	Z9	X10	Y10	Z10	X11	Y11	Z11	X12	Y12	Z12	X13	Y13	Z13	X14	Y14	Z14	X15	Y15	Z15	X16	Y16	Z16	X17	Y17	Z17	X18	Y18	Z18	X19	Y19	Z19	X20	Y20	Z20	X21	Y21	Z21	X22	Y22	Z22	X23	Y23	Z23	X24	Y24	Z24	X25	Y25	Z25	X26	Y26	Z26	X27	Y27	Z27	X28	Y28	Z28	X29	Y29	Z29	X30	Y30	Z30	X31	Y31	Z31	X32	Y32	Z32	X33	Y33	Z33	X34	Y34	Z34	X35	Y35	Z35	X36	Y36	Z36	X37	Y37	Z37	X38	Y38	Z38	

196	0.8125	522.6690063476564	1187.132690429688	-2533.379638671875	410.4194335937501	1189.086791992188	-2538.99951171875	591.2275390625001	1117.07177734375	-2718.34521484375	358.4984130859376	1106.89013671875	-2730.48486328125	659.1926879882814	829.4664306640627	-2698.594970703125	640.3557739257814	834.3214111328127	-2756.910888671875	643.1937866210939	757.0941772460939	-2739.462890625	614.7992553710939	760.4663696289064	-2791.174560546875	580.2791137695314	311.8786315917969	-2786.54345703125	588.7184448242189	313.6867370605469	-2847.6708984375	575.5688476562501	262.1381225585938	-2817.442626953125	571.6140136718751	265.7573852539063	-2877.3583984375	508.1163330078126	101.6620178222657	-2811.11572265625	468.2096557617189	78.92624664306642	-2830.5537109375	529.1962280273439	60.00589752197267	-2827.59033203125	468.7865295410157	115.1908111572266	-2893.3388671875	560.4169311523439	79.89035797119142	-2880.465576171875	489.9969177246095	145.233871459961	-2941.77294921875	491.6954956054689	135.3918151855469	-2975.00341796875	544.2172241210939	146.9318389892578	-2977.29248046875	567.4540405273439	65.05188751220705	-2930.344482421875	484.6997070312501	121.2134704589844	-3034.92529296875	541.7463989257814	126.5554580688477	-3042.7939453125	586.0403442382814	71.63549041748048	-3009.58349609375	535.9152832031251	142.5262908935547	-3095.309570312501	286.1423645019532	842.834899902344	-2547.3193359375	297.2444152832032	810.7412719726565	-2597.72607421875	294.1000976562501	757.5447387695314	-2535.05126953125	318.3183898925782	727.5295410156251	-2582.08251953125	327.0785522460938	518.0621337890626	-2166.982421875	315.7768859863282	466.8019409179689	-2177.9091796875	326.8327331542969	475.4624023437501	-2129.763916015625	330.7614440917969	421.169158935547	-2145.3046875	392.9000244140626	455.2346496582032	-2003.410034179688	373.9582519531251	447.8530273437501	-1959.797119140625	430.1963195800782	443.3228759765626	-1976.26318359375	417.9653930664064	228.9125061035157	-2022.221557617188	328.7643127441407	259.3651428222657	-1960.133911132813	
197	0.8166666666666667	523.7247924804689	1183.702392578125	-2546.56201171875	411.3640441894532	1186.358520507813	-2552.2333984375	591.0394897460939	1113.8876953125	-2731.710693359375	358.4956359863282	1105.084716796875	-2744.03759765625	659.6481323242189	826.8059082031252	-2710.969482421875	641.5645751953126	831.5812988281252	-2769.494873046875	643.1999511718751	754.2863159179689	-2751.646728515625	615.7485961914064	757.6511230468751	-2803.74072265625	580.3024291992189	308.8668823242188	-2800.3798828125	588.3975830078126	310.9997253417969	-2861.52685546875	575.5109252929689	259.2758483886719	-2831.6611328125	571.2812500000001	263.2424316406251	-2891.5146484375	508.1121520996095	98.83914947509768	-2826.25732421875	467.9653320312501	76.13071441650392	-2845.671630859375	529.1038208007814	57.24226379394533	-2843.119873046875	468.5082092285157	112.7469253540039	-2908.3046875	560.1109619140626	77.46755981445314	-2896.031005859375	489.285369873047	143.1652526855469	-2956.747314453125	490.7829589843751	133.4793243408203	-2989.741943359375	543.4340209960939	145.1719207763672	-2992.437744140625	566.8931274414064	62.88546371459962	-2946.011474609375	483.7048950195314	119.1783905029297	-3050.205322265625	540.6116943359376	125.1519165039063	-3057.8310546875	584.9464111328126	69.92714691162111	-3025.36279296875	534.2714233398439	142.0716705322266	-3110.238525390626	285.7601318359376	839.952575683594	-2562.29150390625	296.4352722167969	808.0067138671877	-2612.965087890625	293.2741394042969	754.4782104492189	-2550.648193359375	316.9317321777344	724.6510620117189	-2598.048095703125	327.0491638183594	521.5320434570314	-2181.781005859375	315.4767456054688	470.4983825683595	-2190.84423828125	326.6864929199219	479.9598999023439	-2143.4306640625	329.2694396972657	426.4238891601564	-2155.896484375	393.3316955566407	462.7347717285157	-2016.78076171875	374.4806213378907	456.585662841797	-1972.933227539063	430.6859130859376	451.162811279297	-1989.439819335938	416.2523803710939	235.9082031250001	-2030.431396484375	327.5988464355469	268.7097778320313	-1968.688842773438	
198	0.8208333333333333	524.6838989257814	1180.024047851563	-2559.593505859375	412.2780761718751	1183.2216796875	-2565.3828125	590.8770141601564	1110.550170898438	-2745.064208984375	358.3981323242188	1103.060546875	-2757.57275390625	659.8828735351564	824.1093750000002	-2723.4912109375	642.6911621093751	828.8809814453127	-2782.35546875	643.1687622070314	751.6063842773439	-2764.24560546875	616.5692138671876	755.0938720703126	-2816.718017578125	580.3878784179689	305.7423400878907	-2813.776611328125	588.1157836914064	308.3423461914063	-2874.96484375	575.3691406250001	256.3683166503907	-2845.277587890625	570.8676147460939	260.6324157714844	-2905.086181640625	507.7721557617189	96.02925109863284	-2840.417724609375	467.4615173339845	73.54216766357423	-2859.55419921875	528.5701904296876	54.3706398010254	-2857.378173828125	467.3317260742189	110.1625061035157	-2921.930908203125	559.4039916992189	74.64370727539064	-2910.212890625	488.7281799316407	140.6884765625	-2970.691162109375	489.9071350097657	131.1646118164063	-3003.339599609375	542.3312988281251	142.5834197998047	-3006.038330078125	566.1096191406251	60.25339508056642	-2960.23681640625	483.6367797851564	115.6245956420899	-3066.648193359375	539.5869750976564	123.0868453979492	-3071.6826171875	583.7823486328126	67.35113525390626	-3039.74755859375	533.1139526367189	140.5013427734375	-3123.930908203126	285.3710327148438	836.7852783203127	-2577.16015625	295.4515075683594	805.313171386719	-2628.160888671875	292.4415588378907	751.1960449218751	-2566.143310546875	315.4313354492188	721.5731811523439	-2613.9423828125	326.9619445800782	524.7448120117189	-2196.91748046875	315.0660705566407	473.6897583007814	-2204.60595703125	326.5287780761719	484.2984008789064	-2157.5419921875	328.7749023437501	430.3988342285157	-2168.537353515625	393.8443298339845	470.1911621093751	-2030.624389648438	374.9646606445313	465.2307434082032	-1986.677734375	431.213104248047	459.0220031738282	-2003.04541015625	414.5693969726564	242.7997436523438	-2038.943969726563	326.2156372070313	277.8579406738282	-1978.015869140625	
199	0.825	525.7342529296876	1176.2216796875	-2572.561279296875	413.2017822265626	1179.918579101563	-2578.472412109375	590.7116699218751	1107.132568359375	-2758.419677734375	358.3272094726563	1100.851684570313	-2770.9755859375	659.9334716796876	821.3657836914065	-2736.303466796875	643.7825317382814	826.1655883789065	-2795.478271484375	643.1554565429689	748.9321289062501	-2777.080810546875	617.3861694335939	752.4158325195314	-2829.908447265625	580.3298950195314	302.6459045410157	-2826.790771484375	587.6021728515626	305.3568725585938	-2888.00048828125	575.1306762695314	253.3627319335938	-2858.291748046875	570.4257202148439	257.7314147949219	-2918.11474609375	506.9761047363282	93.0210647583008	-2853.15283203125	466.4812622070314	70.89794921875001	-2872.3974609375	527.5059204101564	51.28974914550783	-2870.2060546875	466.582489013672	107.549789428711	-2934.66943359375	558.5739135742189	71.49339294433595	-2923.046875	487.6994628906251	137.2599639892578	-2982.653564453125	489.0675659179689	128.5105590820313	-3016.0498046875	542.4201660156251	139.5230712890625	-3019.123046875	565.1016845703126	56.96791458129884	-2973.04541015625	483.0466918945314	112.4393997192383	-3080.118652343751	538.9799194335939	120.1601028442383	-3084.273925781251	582.7007446289064	63.91139602661134	-3052.774169921875	532.7265625000001	137.9644775390625	-3136.381103515626	284.9207458496094	833.4937133789065	-2591.927978515625	294.3566284179688	802.298522949219	-2643.21875	291.5610046386719	747.6802368164064	-2581.53125	313.8395385742188	718.2812500000001	-2629.76416015625	326.8294677734376	527.7964477539064	-2212.56591796875	314.7980651855469	476.4960937500001	-2218.73095703125	326.3849182128907	488.3362731933595	-2172.02490234375	328.2482299804688	434.2922668457032	-2181.435791015625	394.3607482910157	477.386199951172	-2044.933471679688	375.3887939453126	473.7205505371095	-2000.862182617188	431.4562072753907	466.3729858398439	-2017.074829101563	412.8614501953126	249.7005004882813	-2047.96240234375	324.9053649902344	287.0854492187501	-1987.9521484375	
